Coordinates
version=1
nRows=6
nColumns=63
inDegrees=yes

Units are S.I. units (second, meters, Newtons, ...)
If the header above contains a line with 'inDegrees', this indicates whether rotational values are in degrees (yes) or radians (no).

endheader
time	pelvis_tilt	pelvis_list	pelvis_rotation	pelvis_tx	pelvis_ty	pelvis_tz	hip_flexion_r	hip_adduction_r	hip_rotation_r	knee_angle_r	knee_angle_r_beta	ankle_angle_r	subtalar_angle_r	mtp_angle_r	hip_flexion_l	hip_adduction_l	hip_rotation_l	knee_angle_l	knee_angle_l_beta	ankle_angle_l	subtalar_angle_l	mtp_angle_l	L5_S1_Flex_Ext	L5_S1_Lat_Bending	L5_S1_axial_rotation	L4_L5_Flex_Ext	L4_L5_Lat_Bending	L4_L5_axial_rotation	L3_L4_Flex_Ext	L3_L4_Lat_Bending	L3_L4_axial_rotation	L2_L3_Flex_Ext	L2_L3_Lat_Bending	L2_L3_axial_rotation	L1_L2_Flex_Ext	L1_L2_Lat_Bending	L1_L2_axial_rotation	L1_T12_Flex_Ext	L1_T12_Lat_Bending	L1_T12_axial_rotation	Abs_r3	Abs_r2	Abs_r1	Abs_t1	Abs_t2	neck_flexion	neck_bending	neck_rotation	arm_flex_r	arm_add_r	arm_rot_r	elbow_flex_r	pro_sup_r	wrist_flex_r	wrist_dev_r	arm_flex_l	arm_add_l	arm_rot_l	elbow_flex_l	pro_sup_l	wrist_flex_l	wrist_dev_l
      1.13559322	     -3.23878271	     -7.09378672	     93.18374910	      0.15980720	      0.87479303	      0.59116198	      7.05212421	     -5.34308775	     -6.31403447	      7.01752460	      0.12247891	     23.44281668	     12.75046325	      0.00000000	      9.43559576	      3.42328924	    -12.10737850	      9.61165310	      0.16775499	     24.59297938	     11.06961343	      0.00000000	     -0.00467625	     -0.43433855	      0.74789867	     -0.00868426	     -0.57767027	      0.79464234	     -0.00768261	     -1.05605074	      0.79464234	     -0.00534448	     -1.05605074	      0.65441134	     -0.00434236	     -0.88570316	      0.60766767	     -0.00267201	     -0.67279041	      0.56092401	     -0.03340196	     -4.91332449	      4.15958805	      0.00000000	      0.00000000	     24.85847492	     -0.10601802	     -2.98550985	     23.42260607	    -15.55740858	      8.51362504	     75.51623485	     87.37014190	     -7.19483563	     18.78997773	     14.39435262	    -16.25398423	     33.64600495	     56.57985312	     89.18604859	     -7.72915311	      6.31636173
      1.15254237	     -2.99069722	     -6.45030872	     94.35845642	      0.15944318	      0.87607378	      0.58865370	      5.63824132	     -4.88942174	     -5.21387161	      6.08152605	      0.10614265	     22.99308211	      9.99661509	      0.00000000	      8.57041082	      3.14391500	    -11.91752857	      9.57752900	      0.16715942	     24.26379319	     11.99135805	      0.00000000	     -0.02763129	     -0.42546610	      0.57535009	     -0.05131408	     -0.56586991	      0.61130947	     -0.04539545	     -1.03447827	      0.61130947	     -0.03157981	     -1.03447827	      0.50343133	     -0.02565842	     -0.86761046	      0.46747195	     -0.01578852	     -0.65904698	      0.43151257	     -0.19736757	     -4.81295757	      3.19992459	      0.00000000	      0.00000000	     24.24252436	      0.56562732	     -3.46217085	     23.37017402	    -15.23584423	      6.95717618	     78.56883169	     86.50178771	     -7.01690852	     19.36549550	     14.36584437	    -16.43636249	     33.80048989	     56.71285054	     89.18793105	     -7.87017141	      6.76768639
      1.16949153	     -2.72301443	     -5.81189906	     95.85681908	      0.15845956	      0.87722256	      0.58616102	      4.15986073	     -4.45560211	     -4.96065128	      5.17880087	      0.09038713	     22.56323648	      7.92020216	      0.00000000	      7.73987023	      2.87371991	    -11.25344478	      9.54713061	      0.16662886	     23.94848111	     12.61733192	      0.00000000	     -0.04805833	     -0.40726610	      0.30141331	     -0.08924912	     -0.54166391	      0.32025164	     -0.07895502	     -0.99022679	      0.32025164	     -0.05492586	     -0.99022679	      0.26373664	     -0.04462696	     -0.83049703	      0.24489831	     -0.02746053	     -0.63085518	      0.22605998	     -0.34327582	     -4.60707555	      1.67637039	      0.00000000	      0.00000000	     23.90362106	      1.23592524	     -3.40796987	     23.65887016	    -14.95345496	      6.19793768	     81.35520609	     85.41453228	     -7.34161806	     19.28585682	     14.05359046	    -16.71819384	     33.73758269	     57.12649170	     89.20432195	     -7.90883739	      7.32528083
      1.18644068	     -2.56335004	     -5.36823239	     96.31565198	      0.15868457	      0.87800920	      0.58394538	      3.44845363	     -4.20300041	     -5.08269430	      5.07948921	      0.08865381	     22.58143297	      7.73596182	      0.00000000	      7.08087156	      2.63465937	    -11.47835294	      9.49768494	      0.16576587	     23.47542584	     12.53443806	      0.00000000	     -0.03868546	     -0.39390947	      0.19899879	     -0.07184277	     -0.52389959	      0.21143621	     -0.06355634	     -0.95775147	      0.21143621	     -0.04421361	     -0.95775147	      0.17412394	     -0.03592332	     -0.80326018	      0.16168651	     -0.02210487	     -0.61016576	      0.14924909	     -0.27632638	     -4.45598265	      1.10677155	      0.00000000	      0.00000000	     23.62009552	      1.50368976	     -3.32942592	     24.22990924	    -14.69978365	      5.72209301	     83.88102806	     85.18014819	     -7.32602251	     18.80974746	     13.64988561	    -17.02744109	     33.77510950	     57.57775110	     89.21907207	     -7.99297794	      7.31841670
      1.20338983	     -2.34076932	     -4.69897391	     98.41341193	      0.15702939	      0.87906826	      0.58086731	      1.36406129	     -3.55201915	     -1.83255482	      3.24207925	      0.05658496	     20.75786439	      0.35434054	      0.00000000	      6.04752601	      2.45442444	     -9.48548691	      9.07829622	      0.15844616	     23.09465607	     12.60828478	      0.00000000	     -0.07206013	     -0.38105172	     -0.16298417	     -0.13382286	     -0.50679878	     -0.17317068	     -0.11838758	     -0.92648914	     -0.17317068	     -0.08235752	     -0.92648914	     -0.14261115	     -0.06691503	     -0.77704066	     -0.13242464	     -0.04117516	     -0.59024911	     -0.12223813	     -0.51471829	     -4.31053323	     -0.90646907	      0.00000000	      0.00000000	     23.94243767	      2.30897808	     -3.17808514	     24.65294315	    -14.16163640	      4.81394888	     86.50999889	     83.68414262	     -7.60337526	     18.24419575	     13.17948580	    -17.39601377	     34.08866571	     58.38800235	     89.23351286	     -9.44044221	      7.84556502
      1.22033898	     -2.16484482	     -4.33394383	     98.83490237	      0.15718404	      0.87964644	      0.57806003	      0.66915461	     -3.23731441	     -2.13291448	      3.04138560	      0.05308219	     20.73124270	      0.12601953	      0.00000000	      5.38394964	      2.18167196	     -9.45746622	      8.88218712	      0.15502341	     22.91639698	     12.62869882	      0.00000000	     -0.05617565	     -0.36302412	     -0.23024048	     -0.10432381	     -0.48282208	     -0.24463051	     -0.09229098	     -0.88265686	     -0.24463051	     -0.06420315	     -0.88265686	     -0.20146042	     -0.05216471	     -0.74027879	     -0.18707039	     -0.03209877	     -0.56232437	     -0.17268036	     -0.40125708	     -4.10660150	     -1.28052850	      0.00000000	      0.00000000	     23.94996869	      2.43219953	     -3.08233499	     25.45023223	    -13.91398408	      4.28964710	     88.94730315	     83.54265852	     -7.60070792	     17.59235244	     12.53473368	    -17.61615086	     34.01407499	     59.19337101	     89.22891063	     -9.88987120	      7.76474179
